<?xml version="1.0" encoding="UTF-8"?>
<!DOCTYPE svg  PUBLIC '-//W3C//DTD SVG 1.0//EN'  'http://www.w3.org/TR/2001/REC-SVG-20010904/DTD/svg10.dtd'>
<svg width="28.359mm" height="53.872mm" clip-rule="evenodd" fill-rule="evenodd" image-rendering="optimizeQuality" shape-rendering="geometricPrecision" text-rendering="geometricPrecision" version="1.0" viewBox="0 0 105377 200179" xml:space="preserve" xmlns="http://www.w3.org/2000/svg">
 <defs>
  <style type="text/css">
   <![CDATA[
    .fil1 {fill:none}
    .fil0 {/*fill:#2B2A29*/ fill: #ffffff;}
   ]]>
  </style>
 </defs>
    <path class="fil0" d="m66929 54244c19214-979 9525-422 29065-1676 868-50 1611 613 1661 1480s-612 1611-1480 1661c-19560 1255-9838 697-29167 1680-868 22-1590-664-1612-1533s665-1590 1533-1612z"/>
   <path class="fil1" d="m66969 55816c7970-201 20573-1185 29116-1677"/>
    <path class="fil0" d="m64806 55379c-1377-21622-7254-25802-6493-8110 675 15687 1104 31432 1781 47145 51 868-612 1611-1479 1661-868 50-1611-612-1661-1480-420-9734-4698-53348 13-58630 9804-10991 10856 17289 10980 19233 50 867-613 1611-1480 1661s-1611-613-1661-1480z"/>
   <path class="fil1" d="m66376 55289c-147-2560-994-30115-9774-16146-291 462 1647 50584 1922 55362"/>
    <path class="fil0" d="m58434 92934c2304-66 31612-2342 32026 1977 2950 30795-1593 22855-33451 22042-867 50-1611-612-1661-1480-50-867 613-1610 1480-1660l19360 492c13821 588 12329 3470 11186-18146-5733-892-24139-217-28759-84-868 50-1611-612-1661-1480-50-867 613-1610 1480-1661z"/>
   <path class="fil1" d="m58524 94505c3925-227 30297-693 30365 497 1832 31786 870 18489-31971 20381"/>
    <path class="fil0" d="m59641 1.1579e5c1088 21520 4077 57707 2450 76595-452 742-1420 978-2162 527-742-452-978-1420-526-2162-998-24974-1639-49779-2903-74779-50-867 613-1611 1480-1660 867-51 1611 612 1661 1479z"/>
   <path class="fil1" d="m58071 1.1588e5c411 7136 3467 74387 2676 75687"/>
    <path class="fil0" d="m95739 51619c3175-8553-5174-33117-14064-37797-22052-11610-48099-6830-48492 21874-288 21011-1390 42384 756 63034 50 868-612 1611-1480 1661-867 50-1611-612-1660-1480-2158-20661-1054-42214-762-63253 432-31140 28903-37338 53082-24631 10423 5477 19501 31340 15358 42142-429 756-1388 1022-2144 594s-1022-1387-594-2144z"/>
   <path class="fil1" d="m97108 52394c3514-6211-3757-34310-14711-39970-24337-12576-54126-6469-50487 29683 478 4752-1473 32941-843 43868 246 4271 1115 9612 1302 12846"/>
    <path class="fil0" d="m31188 1.0046e5c-3301-282-25017-2663-27484 33 94 2510 756 14082 2144 16806 38941-3493 29822-5652 30020 28041 38 6526 392 45017 2890 51566 4330-79 17585-220 20616-1770-233-3585-158-2691-1439-6383-264-828 192-1713 1020-1978 827-264 1712 193 1977 1020 5112 14736-4769 12184-22729 12266-7428 35-5775-69269-4784-80456-2075-790-9617-487-11002-422-10375 486-18115 4766-20012-2187-7338-26895 3833-21835 28906-19680 868 34 1543 766 1510 1634-34 868-765 1544-1633 1510zm2261 18817c18-186 36-357 54-501-74 154-88 331-54 501z"/>
   <path class="fil1" d="m31249 98885c-4591-178-29422-3631-29116 1678 190 3295 866 18489 3305 18349 3239-187 32048-3521 29397 697-1021 1625-1003 79126 3277 78879 3677-212 23038 71 22861-3003-282-4890-199-3018-1540-7214"/>
    <path class="fil0" d="m289 99687c10550-14302 11096-11934 30289-12450 867-51 1611 612 1661 1479s-613 1611-1480 1661c-18036 487-18149-2100-27902 11126-501 710-1483 878-2192 376-710-501-878-1483-376-2192z"/>
   <path class="fil1" d="m1573 1.006e5c10091-14264 9923-10683 29095-11788"/>
    <path class="fil0" d="m58639 85129c4978-544 37777-4489 38033 1224 228 5108-5785 8426-9544 10276-827 265-1713-192-1977-1020-264-827 193-1712 1020-1976 2005-998 6657-3477 7274-6401-11284-369-22444-213-33699 841-813 306-1720-105-2026-918s106-1720 919-2026z"/>
   <path class="fil1" d="m59192 86601c2846-1071 33781-1417 35809-844 920 3431-4653 8192-8351 9374"/>
    <path class="fil0" d="m86806 1.1585e5c17456-16497 7116-10045 6811-28484-15-869 677-1585 1546-1599s1584 678 1599 1546l16 986c4775 18763 5300 17447-7768 29795-620 609-1616 600-2224-20-609-620-600-1616 20-2224z"/>
   <path class="fil1" d="m87908 1.1697e5c11001-10804 12688-8097 7300-28462l-19-1171"/>
    <path class="fil0" d="m96123 52342c9594-8789 6413-14099 1228-27193-11510-29061-57551-29284-60446-1210 0 0-387 3023-387 3024-110 861-899 1470-1760 1360-862-110-1471-898-1360-1760l386-3016-11 147c2815-31238 53684-32048 66507 309 5639 14229 8626 20891-2058 30682-647 580-1642 526-2221-121-580-648-525-1642 122-2222z"/>
   <path class="fil1" d="m97172 53514c8322-7457 7741-7381 3826-22179-5114-19333-15707-28066-36010-29384-13527-878-29184 5825-29643 21788l-387 3024"/>
    <path class="fil0" d="m38746 17419c-6188 30422-6665 44871-5129 75712 49 868-613 1611-1480 1661-868 50-1611-612-1661-1480-1550-31149-1053-45836 5196-76565 186-849 1024-1387 1873-1201s1386 1024 1201 1873z"/>
   <path class="fil1" d="m37209 17083c-6313 28885-6872 46488-5163 76139"/>
    <path class="fil0" d="m9191 93869c3313-3417 1573-1728 5232-5053 803-331 1723 51 2054 854s-52 1723-855 2054c-2581 2710-1141 1212-4330 4487-647 580-1642 526-2222-121s-525-1641 121-2221z"/>
   <path class="fil1" d="m10242 95040c861-773 4272-4560 4781-4770"/>
    <path class="fil0" d="m13767 95290c1761-1644 3446-3174 4814-5179 236-835 1105-1321 1941-1085s1322 1106 1085 1941c-1867 3206-3080 4183-5739 6666-647 579-1642 525-2221-121-580-647-526-1642 120-2222z"/>
   <path class="fil1" d="m14818 96461c1149-1030 4899-4590 5276-5921"/>
    <path class="fil0" d="m20285 95726c2749-4163 1403-2070 4036-6279 425-758 1384-1027 2142-602s1027 1384 602 2141c-2756 4414-1352 2228-4212 6557-502 709-1483 877-2193 375-709-502-877-1483-375-2192z"/>
   <path class="fil1" d="m21569 96635c710-1004 3527-5354 4124-6418"/>
    <path class="fil0" d="m24722 95531c2689-4543 1386-2357 3905-6560 237-836 1106-1322 1942-1086 836 237 1322 1106 1085 1942-2823 4991-1395 2527-4279 7394-467 733-1439 949-2171 482-734-466-949-1438-482-2172z"/>
   <path class="fil1" d="m26048 96376c228-357 4059-6859 4092-6977"/>
    <path class="fil0" d="m59688 92340c1630-4482 1778-3269 3590-6489 236-836 1105-1323 1941-1087 836 237 1322 1106 1086 1942-1549 2996-2351 3024-3539 6280-178 851-1012 1395-1862 1217-850-179-1395-1012-1216-1863z"/>
   <path class="fil1" d="m61227 92663c687-3275 3092-4712 3564-6385"/>
    <path class="fil0" d="m63209 91094c1165-1905 2961-5459 5063-6552 834-242 1707 237 1949 1071 211 725-124 1479-762 1823-1038 1055-2813 4069-3560 5290-450 742-1418 979-2161 529-742-451-979-1418-529-2161z"/>
   <path class="fil1" d="m64554 91910c401-661 3389-5633 4157-5858"/>
    <path class="fil0" d="m67329 92398c2852-3614 1571-1831 3885-5320 236-835 1105-1321 1941-1085s1322 1105 1086 1941c-2806 4568-1314 2447-4429 6396-533 685-1521 809-2207 275-686-533-809-1521-276-2207z"/>
   <path class="fil1" d="m68571 93364c805-1035 3804-4610 4156-5858"/>
    <path class="fil0" d="m72886 92133c1182-1817 2989-5396 5e3 -6459 834-244 1707 235 1951 1069 207 710-109 1449-723 1803-1137 1251-2729 3977-3660 5404-502 709-1483 877-2193 375-709-502-877-1483-375-2192z"/>
   <path class="fil1" d="m74170 93041c712-1007 3483-5660 4157-5858"/>
    <path class="fil0" d="m78003 91144c2733-3139 3330-4142 6971-6394 803-330 1723 52 2053 855 331 804-52 1723-855 2054-2708 1719-3750 3200-5821 5578-578 649-1572 706-2220 128-649-578-706-1572-128-2221z"/>
   <path class="fil1" d="m79177 92191c1586-1780 4172-5070 6396-5987"/>
    <path class="fil0" d="m82954 92176c1858-2772 4534-7407 8253-7867 869 19 1558 739 1538 1607-19 869-738 1558-1607 1538l19 3c-1806 714-4551 4920-5549 6408-466 733-1439 949-2172 483s-949-1439-482-2172z"/>
   <path class="fil1" d="m84281 93021c1092-1717 4762-7185 6892-7139"/>
    <path class="fil0" d="m88065 97750c2404-2261 2823-2883 5824-4525 803-331 1723 52 2054 855s-52 1722-855 2053c-2319 1277-3024 2175-4923 3960-647 580-1641 526-2221-122-580-647-526-1641 121-2221z"/>
   <path class="fil1" d="m89115 98921c1650-1479 3261-3371 5374-4242"/>
    <path class="fil0" d="m88388 1.0335e5c4312-4014 2362-2063 5901-5803 236-836 1105-1322 1941-1085 836 236 1322 1105 1086 1941-4317 5242-2030 2823-6828 7290-647 580-1642 525-2222-122-579-647-525-1641 122-2221z"/>
   <path class="fil1" d="m89438 1.0452e5c1114-999 6061-5473 6364-6546"/>
    <path class="fil0" d="m89332 1.0842e5c2578-4755 3446-4632 6378-8473 423-758 1382-1030 2140-606 758 423 1030 1382 607 2140-2459 3278-4176 4378-6157 7980-288 819-1185 1251-2005 964-819-288-1251-1185-963-2005z"/>
   <path class="fil1" d="m90816 1.0894e5c1169-3335 4941-5850 6267-8226"/>
    <path class="fil0" d="m59805 2477l689 2208c259 829-203 1711-1032 1969-829 259-1712-203-1970-1032-1 0-689-2207-689-2207-259-830 203-1711 1032-1970s1711 203 1970 1032z"/>
   <path class="fil1" d="m58304 2946l689 2207"/>
    <path class="fil0" d="m65404 2154c1 1 690 2207 690 2208 259 829-204 1711-1033 1970s-1711-204-1970-1033c-1815-5811 1125 3604-689-2207-259-829 203-1711 1033-1970 829-259 1711 203 1969 1032z"/>
   <path class="fil1" d="m63903 2623l689 2208"/>
    <path class="fil0" d="m68781 6424c397-2171 437-2986 2459-4027 803-331 1722 52 2053 855s-52 1722-855 2053c-534 267-417 889-578 1766-179 850-1012 1395-1863 1216-850-178-1395-1012-1216-1863z"/>
   <path class="fil1" d="m70320 6748c309-1469 204-2355 1519-2897"/>
    <path class="fil0" d="m73033 7322c1613-2211 1965-2589 4286-4091 765-411 1718-124 2130 641 411 765 123 1719-642 2130-1719 1114-1970 1438-3166 3079-486 721-1463 910-2184 424-720-485-910-1462-424-2183z"/>
   <path class="fil1" d="m74337 8202c896-1328 2053-2687 3726-3586"/>
    <path class="fil0" d="m80127 8594c1534-630 2188-1237 3827-1393 869 18 1557 737 1539 1606-19 859-723 1542-1578 1539-683 207-2006 911-2792 1233-824 274-1715-170-1990-995-275-824 170-1715 994-1990z"/>
   <path class="fil1" d="m80625 10087c1394-466 2469-1331 3295-1314"/>
    <path class="fil0" d="m83958 13595c2382-1678 2205-1848 5169-2203 867-50 1611 612 1661 1480 50 867-613 1610-1480 1660-2054 231-1723 355-3596 1673-721 485-1698 293-2182-428-485-721-293-1698 428-2182z"/>
   <path class="fil1" d="m84835 14900c2121-1426 2094-1806 4383-1938"/>
    <path class="fil0" d="m89550 17628c602-212 1723-438 2143-867 578-648 1572-706 2221-128 648 578 706 1572 128 2221-1177 1184-1784 1154-3327 1696-807 322-1722-71-2044-878-322-808 72-1722 879-2044z"/>
   <path class="fil1" d="m90132 19089c1568-625 1990-444 2736-1281"/>
    <path class="fil0" d="m91142 24252c2818-1186 1390-555 4281-1901 803-331 1723 52 2054 855 330 803-52 1723-855 2054-2843 1327-1351 664-4484 1976-824 275-1716-170-1990-994-275-824 169-1715 994-1990z"/>
   <path class="fil1" d="m91639 25744c1670-558 2881-1320 4383-1939"/>
    <path class="fil0" d="m94709 30849c2470-1113 1331-559 3429-1637 636-592 1631-556 2223 80 591 636 555 1631-80 2223-2892 1651-1479 940-4217 2174-784 374-1723 42-2097-742-375-784-42-1723 742-2098z"/>
   <path class="fil1" d="m95386 32269c669-319 3276-1397 3823-1906"/>
    <path class="fil0" d="m97380 36759l1331-95c680-606 1561-602 2507-689 867-50 1610 613 1661 1480 49 868-613 1611-1480 1661-657 58-577 38-752 67-834 745-2119 668-3185 721-868 23-1591-663-1613-1531-23-869 662-1591 1531-1614z"/>
   <path class="fil1" d="m97421 38331c3767-99 868-611 3887-785"/>
    <path class="fil0" d="m97201 41883c2299-899 2235-1133 4835-1461 867-49 1611 613 1661 1481 50 867-613 1610-1480 1660-1873 226-2156 576-3995 1295-822 282-1716-155-1998-977-282-821 155-1716 977-1998z"/>
   <path class="fil1" d="m97711 43371c2275-780 2271-1254 4415-1378"/>
</svg>
