<?xml version="1.0" encoding="UTF-8"?>
<svg enable-background="new 0 0 1024 1024" version="1.1" viewBox="0 0 1024 1024" xml:space="preserve" xmlns="http://www.w3.org/2000/svg">
<style type="text/css">
	.st0{fill:#FFFFFF;}
	.st1{fill:#4EABCB;}
</style>


		<path class="st0" d="m946.2 597.3c48.6-62.7 77.8-141.1 77.8-226.6 0-204.7-166-370.7-370.7-370.7-145.8 0-271.6 84.4-332.1 206.8-181.3 24.2-321.2 179.1-321.2 367 0 204.7 166 370.7 370.7 370.7 68.7 0 132.8-19 188-51.6 41.6 78 123.6 131.2 218.2 131.2 136.5 0 247.1-110.6 247.1-247.1 0-71-30-134.7-77.8-179.7z"/>


		<path class="st1" d="m653.3 54.6c-13.4 0-26.6 1.1-39.7 2.8-4.2 0.5-8.3 1.3-12.5 1.9-99.2 16.5-185 78.9-230.9 171.7l-12.9 26.1-28.8 3.9c-145.2 19.4-257.1 137.2-272 280.4 16.8 139.7 151.3 248.9 314.3 248.9 56.1 0 111.5-13.4 160.2-38.8l49.1-25.6 26.8 44.4c33.6 55.5 98.7 90 170 90 90.3 0 165.7-55.2 186.4-129.2-8.7-35.5-27-68-54.5-94l-36-34 30.3-39.2c10.7-13.8 20.1-28.3 28.3-43.2 3.7-6.9 7.2-14 10.4-21.2 0.2-0.5 0.5-1 0.7-1.5 6.9-15.5 12.6-31.7 16.9-48.4v-0.1c2-7.6 3.6-15.4 5-23.3 0.1-0.8 0.4-1.6 0.5-2.4 1.3-7.3 2.1-14.8 2.9-22.3 0.1-1.3 0.4-2.7 0.5-4 0.7-8.8 1.1-17.7 1.1-26.7v-0.1-0.6c-0.4-174.1-142-315.5-316.1-315.5z"/>
	
	<path class="st0" d="m761.9 299.5c-7.5-8.6-19.6-11.6-30.2-7.5l-197.1 74.2 64.9-157.3c5.8-13.9-0.9-29.9-14.8-35.6-14-5.8-29.9 0.9-35.7 14.8l-88.9 215.4c-4.1 10.1-1.9 21.6 5.6 29.4 7.6 7.8 19.1 10.4 29.2 6.5l187.8-70.7-81 150.5-55.1-29.7 5.4 179.6 153-94.3-55.1-29.6 115.5-214.7c5.4-10.1 4-22.4-3.5-31z"/>

</svg>
